<svg width="937" height="868" viewBox="0 0 937 868" fill="none" xmlns="http://www.w3.org/2000/svg">
<path fill-rule="evenodd" clip-rule="evenodd" d="M469.541 0.870445C565.446 10.8153 606.458 119.4 685.138 171.73C765.217 224.991 903.896 220.791 932.525 308.801C961.26 397.139 843.535 466.561 809.203 553.128C777.108 634.055 804.784 736.697 738.891 797.051C670.789 859.427 563.857 876.642 469.541 864.234C381.388 852.637 320.977 783.154 250.064 732.742C181.017 683.657 101.848 645.769 61.2887 574.006C15.5647 493.106 -18.6781 397.371 11.2657 310.234C41.2344 223.025 136.896 176.667 216.237 123.107C295.227 69.7839 372.772 -9.16408 469.541 0.870445Z" fill="#9098DF" fill-opacity="0.24"/>
</svg>


