<svg width="1440" height="770" viewBox="0 0 1440 770" fill="none" xmlns="http://www.w3.org/2000/svg">
<path fill-rule="evenodd" clip-rule="evenodd" d="M841.304 -113.114C1053.58 -102.985 1144.36 7.60109 1318.52 60.8953C1495.77 115.138 1802.73 110.861 1866.09 200.493C1929.7 290.459 1669.12 361.161 1593.13 449.324C1522.09 531.743 1583.35 636.277 1437.5 697.743C1286.75 761.269 1050.07 778.802 841.304 766.165C646.182 754.354 512.465 683.59 355.503 632.249C202.672 582.259 27.4356 543.672 -62.3407 470.587C-163.548 388.196 -239.343 290.696 -173.064 201.953C-106.73 113.136 105.012 65.9235 280.628 11.3763C455.469 -42.9298 627.11 -123.333 841.304 -113.114Z" fill="#9098DF" fill-opacity="0.24"/>
</svg>


