<svg width="240" height="44" viewBox="0 0 240 44" fill="none" xmlns="http://www.w3.org/2000/svg">
<path d="M37.9173 31.1504C39.2767 31.1504 40.2728 30.7637 40.9056 29.9902C41.5384 29.2051 41.8841 27.8398 41.9427 25.8945V25.2441C41.9427 23.1348 41.6146 21.623 40.9584 20.709C40.3138 19.7949 39.2709 19.3379 37.8295 19.3379C35.3099 19.3379 34.0502 21.3184 34.0502 25.2793C34.0502 27.248 34.3607 28.7188 34.9818 29.6914C35.6146 30.6641 36.5931 31.1504 37.9173 31.1504ZM36.0013 35.3516C33.681 35.3516 31.8646 34.4609 30.5521 32.6797C29.2396 30.8867 28.5834 28.3965 28.5834 25.209C28.5834 21.998 29.2513 19.4902 30.5873 17.6855C31.9349 15.8809 33.7748 14.9785 36.1068 14.9785C37.349 14.9785 38.433 15.2129 39.3587 15.6816C40.2845 16.1504 41.099 16.877 41.8021 17.8613H41.9427L42.4173 15.3477H46.9525V43.6484H41.5736V35.4043C41.5736 34.6895 41.6498 33.7051 41.8021 32.4512H41.5736C40.9994 33.4004 40.2377 34.1211 39.2884 34.6133C38.3392 35.1055 37.2435 35.3516 36.0013 35.3516ZM63.6018 35L62.8811 32.4863H62.5998C62.0256 33.4004 61.2112 34.1094 60.1565 34.6133C59.1018 35.1055 57.9006 35.3516 56.553 35.3516C54.2444 35.3516 52.5041 34.7363 51.3323 33.5059C50.1604 32.2637 49.5744 30.4824 49.5744 28.1621V15.3477H54.9358V26.8262C54.9358 28.2441 55.1877 29.3105 55.6916 30.0254C56.1955 30.7285 56.9983 31.0801 58.0998 31.0801C59.5998 31.0801 60.6838 30.582 61.3518 29.5859C62.0198 28.5781 62.3537 26.9141 62.3537 24.5938V15.3477H67.7151V35H63.6018ZM70.2316 10.2676C70.2316 8.52148 71.2042 7.64844 73.1495 7.64844C75.0948 7.64844 76.0675 8.52148 76.0675 10.2676C76.0675 11.0996 75.8214 11.75 75.3292 12.2188C74.8488 12.6758 74.1222 12.9043 73.1495 12.9043C71.2042 12.9043 70.2316 12.0254 70.2316 10.2676ZM75.8214 35H70.4601V15.3477H75.8214V35ZM92.2598 35H76.7383V31.8359L85.8438 19.4434H77.2832V15.3477H91.9434V18.8281L83.084 30.9043H92.2598V35Z" fill="#61A0D2"/>
<path d="M105.763 35L104.725 32.3281H104.585C103.682 33.4648 102.751 34.2559 101.79 34.7012C100.841 35.1348 99.5985 35.3516 98.0634 35.3516C96.1766 35.3516 94.6884 34.8125 93.5985 33.7344C92.5204 32.6562 91.9813 31.1211 91.9813 29.1289C91.9813 27.043 92.7079 25.5078 94.161 24.5234C95.6259 23.5273 97.829 22.9766 100.77 22.8711L104.181 22.7656V21.9043C104.181 19.9121 103.161 18.916 101.122 18.916C99.5516 18.916 97.7059 19.3906 95.5848 20.3398L93.8094 16.7188C96.0712 15.5352 98.579 14.9434 101.333 14.9434C103.97 14.9434 105.991 15.5176 107.397 16.666C108.804 17.8145 109.507 19.5605 109.507 21.9043V35H105.763ZM104.181 25.8945L102.106 25.9648C100.548 26.0117 99.3876 26.293 98.6259 26.8086C97.8641 27.3242 97.4833 28.1094 97.4833 29.1641C97.4833 30.6758 98.3505 31.4316 100.085 31.4316C101.327 31.4316 102.317 31.0742 103.056 30.3594C103.806 29.6445 104.181 28.6953 104.181 27.5117V25.8945ZM122.957 35.3516C120.648 35.3516 118.838 34.5137 117.525 32.8379H117.244C117.431 34.4785 117.525 35.4277 117.525 35.6855V43.6484H112.164V15.3477H116.523L117.279 17.8965H117.525C118.779 15.9512 120.636 14.9785 123.097 14.9785C125.418 14.9785 127.234 15.875 128.547 17.668C129.859 19.4609 130.515 21.9512 130.515 25.1387C130.515 27.2363 130.205 29.0586 129.584 30.6055C128.974 32.1523 128.101 33.3301 126.965 34.1387C125.828 34.9473 124.492 35.3516 122.957 35.3516ZM121.375 19.2676C120.051 19.2676 119.084 19.6777 118.474 20.498C117.865 21.3066 117.549 22.6484 117.525 24.5234V25.1035C117.525 27.2129 117.836 28.7246 118.457 29.6387C119.09 30.5527 120.086 31.0098 121.445 31.0098C123.847 31.0098 125.049 29.0293 125.049 25.0684C125.049 23.1348 124.75 21.6875 124.152 20.7266C123.566 19.7539 122.64 19.2676 121.375 19.2676ZM142.858 35.3516C140.549 35.3516 138.739 34.5137 137.426 32.8379H137.145C137.333 34.4785 137.426 35.4277 137.426 35.6855V43.6484H132.065V15.3477H136.424L137.18 17.8965H137.426C138.68 15.9512 140.538 14.9785 142.999 14.9785C145.319 14.9785 147.135 15.875 148.448 17.668C149.76 19.4609 150.417 21.9512 150.417 25.1387C150.417 27.2363 150.106 29.0586 149.485 30.6055C148.876 32.1523 148.003 33.3301 146.866 34.1387C145.729 34.9473 144.393 35.3516 142.858 35.3516ZM141.276 19.2676C139.952 19.2676 138.985 19.6777 138.376 20.498C137.766 21.3066 137.45 22.6484 137.426 24.5234V25.1035C137.426 27.2129 137.737 28.7246 138.358 29.6387C138.991 30.5527 139.987 31.0098 141.346 31.0098C143.749 31.0098 144.95 29.0293 144.95 25.0684C144.95 23.1348 144.651 21.6875 144.053 20.7266C143.467 19.7539 142.542 19.2676 141.276 19.2676Z" fill="white"/>
</svg>
