<svg width="27" height="27" viewBox="0 0 27 27" fill="none" xmlns="http://www.w3.org/2000/svg">
<path d="M10.0286 0C12.6883 0 15.2391 1.05658 17.1198 2.9373C19.0006 4.81802 20.0571 7.36883 20.0571 10.0286C20.0571 12.5126 19.1469 14.796 17.6503 16.5549L18.0669 16.9714H19.2857L27 24.6857L24.6857 27L16.9714 19.2857V18.0669L16.5549 17.6503C14.796 19.1469 12.5126 20.0571 10.0286 20.0571C7.36883 20.0571 4.81802 19.0006 2.9373 17.1198C1.05658 15.2391 0 12.6883 0 10.0286C0 7.36883 1.05658 4.81802 2.9373 2.9373C4.81802 1.05658 7.36883 0 10.0286 0ZM10.0286 3.08571C6.17143 3.08571 3.08571 6.17143 3.08571 10.0286C3.08571 13.8857 6.17143 16.9714 10.0286 16.9714C13.8857 16.9714 16.9714 13.8857 16.9714 10.0286C16.9714 6.17143 13.8857 3.08571 10.0286 3.08571Z" fill="black" fill-opacity="0.68"/>
</svg>
