<?xml version="1.0" standalone="no"?>
<svg width="670" height="593" viewBox="0 0 670 663" fill="none" xmlns="http://www.w3.org/2000/svg">
<path fill-rule="evenodd" clip-rule="evenodd" d="M335.622 0.664122C404.174 8.25175 433.489 91.0985 489.728 131.024C546.968 171.661 646.093 168.456 666.557 235.605C687.097 303.004 602.948 355.971 578.408 422.019C555.467 483.764 575.249 562.077 528.15 608.125C479.471 655.716 403.038 668.85 335.622 659.383C272.611 650.535 229.43 597.522 178.742 559.059C129.389 521.608 72.7998 492.701 43.8084 437.949C11.1254 376.225 -13.3509 303.182 8.05262 236.699C29.4739 170.161 97.8515 134.791 154.563 93.9268C211.024 53.2429 266.452 -6.9919 335.622 0.664122Z" fill="#27307D"/>
</svg>



