<?xml version="1.0" standalone="no"?>
<svg viewBox="0 0 200 200" xmlns="http://www.w3.org/2000/svg">
  <path fill="#27307D" d="M28.9,-55.1C33,-42.4,28.8,-26.8,28.4,-16.3C28.1,-5.8,31.6,-0.4,37.5,10.1C43.3,20.6,51.5,36.2,48.5,45C45.5,53.8,31.2,55.9,18.8,55.7C6.4,55.6,-4.3,53.2,-19.6,54.3C-34.8,55.5,-54.7,60,-57.2,52.3C-59.8,44.5,-45,24.4,-44.8,8.1C-44.6,-8.3,-58.9,-20.9,-57.9,-27.9C-56.9,-34.9,-40.6,-36.3,-28.4,-45.2C-16.1,-54.2,-8.1,-70.7,2.2,-74.1C12.4,-77.5,24.8,-67.8,28.9,-55.1Z" transform="translate(100 100)" />
</svg>
